PathFileType	4	(X/Y/Z)	Kaydara	
DataRate	CameraRate	NumFrames	NumMarkers	Units	OrigDataRate	OrigDataStartFrame	OrigNumFrames	
60.00	60.00	4	186	mm	60.00	177	471	
Frame#	Time	HeadTop			ForeHead			LFrontHead			RFrontHead			TopSpine			Sternum			Scapula			LFShoulder			LShoulder			LBicep			LOuterElbow			LHand			LWristPinky			LWristThumb			RFShoulder			RShoulder			RBicep			ROuterElbow			RHand			RWristPinky			RWristThumb			MiddleBack			LowerBack			Root			Pelvis			LBackWaist			RBackWaist			LFrontWaist			RFrontWaist			Bellymarker			LThigh			LOuterKnee			LAnkle			LHeel			LOuterMeta			LToe			RThigh			ROuterKnee			RAnkle			RHeel			ROuterMeta			RToe			Floor1			Floor2			Floor3			Floor4			MidDoghead			LeftDogHead			RightDogHead			TopSpineDog			LFhoulderDog			LElbowDog			LForeLeg			LPaw			RFShoulderDog			RElbowDog			RForeLeg			RPaw			MidbackDog			LowBackDog			RootDog			LFrontWaistDog			RFrontWaistDog			LBackWaistDog			RBackWaistDog			LBackElbow			LBackLeg			LBackPaw			RBackElbow			RBackLeg			RBackPaw			t			VR_STERNUM2			VR_RForeleg			VR_Relbow			VR_Rpaw			VR_LForeleg			VR_Lelbow			VR_Lpaw			VR_RRearleg			VR_RBackelbow			VR_RBackpaw			VR_LBackleg			VR_LBackelbow			VR_LBackpaw			VR_RFrontspine			VR_LFrontspine			VR_STERNUM3			VR_NeckSternum			Hoop1			Hoop2			Hoop3			Hoop4			Stand1			Stand2			Stand3			Stand4			*Unnamed_42			*Unnamed_43			*Unnamed_44			*Unnamed_45			*Unnamed_80			*Unnamed_81			*Unnamed_82			*Unnamed_83			*Unnamed_84			*Unnamed_85			*Unnamed_86			*Unnamed_87			*Unnamed_88			*Unnamed_89			*Unnamed_90			*Unnamed_91			*Unnamed_92			*Unnamed_93			*Unnamed_94			*Unnamed_95			*Unnamed_96			*Unnamed_97			*Unnamed_98			*Unnamed_99			*Unnamed_100			*Unnamed_101			*Unnamed_102			*Unnamed_103			*Unnamed_104			*Unnamed_105			*Unnamed_106			*Unnamed_107			*Unnamed_47			*Unnamed_48			*Unnamed_49			*Unnamed_50			*Unnamed_51			*Unnamed_52			*Unnamed_53			*Unnamed_54			*Unnamed_55			*Unnamed_56			*Unnamed_57			*Unnamed_58			*Unnamed_59			*Unnamed_60			*Unnamed_61			*Unnamed_62			*Unnamed_63			*Unnamed_64			*Unnamed_65			*Unnamed_66			*Unnamed_67			*Unnamed_68			*Unnamed_69			*Unnamed_70			*Unnamed_71			*Unnamed_72			*Unnamed_73			*Unnamed_74			*Unnamed_75			*Unnamed_76			*Unnamed_77			*Unnamed_78			*Unnamed_79			prop1			prop2			prop3			prop4			prop5			prop6			prop7			prop8			L_Handlebar			R_Handlebar			Front_Frame			L_Fork			R_Fork			Front_Orig_Spoke			Front_Long_Spoke			Front_Plane_Spoke			Crossframe			L_Pedal			R_Pedal			L_Rear_Fork			R_Rear_Fork			Back_Orig_Spoke			Back_Long_Spoke			Back_Plane_Spoke			
		X1	Y1	Z1	X2	Y2	Z2	X3	Y3	Z3	X4	Y4	Z4	X5	Y5	Z5	X6	Y6	Z6	X7	Y7	Z7	X8	Y8	Z8	X9	Y9	Z9	X10	Y10	Z10	X11	Y11	Z11	X12	Y12	Z12	X13	Y13	Z13	X14	Y14	Z14	X15	Y15	Z15	X16	Y16	Z16	X17	Y17	Z17	X18	Y18	Z18	X19	Y19	Z19	X20	Y20	Z20	X21	Y21	Z21	X22	Y22	Z22	X23	Y23	Z23	X24	Y24	Z24	X25	Y25	Z25	X26	Y26	Z26	X27	Y27	Z27	X28	Y28	Z28	X29	Y29	Z29	X30	Y30	Z30	X31	Y31	Z31	X32	Y32	Z32	X33	Y33	Z33	X34	Y34	Z34	X35	Y35	Z35	X36	Y36	Z36	X37	Y37	Z37	X38	Y38	Z38	X39	Y39	Z39	X40	Y40	Z40	X41	Y41	Z41	X42	Y42	Z42	X43	Y43	Z43	X44	Y44	Z44	X45	Y45	Z45	X46	Y46	Z46	X47	Y47	Z47	X48	Y48	Z48	X49	Y49	Z49	X50	Y50	Z50	X51	Y51	Z51	X52	Y52	Z52	X53	Y53	Z53	X54	Y54	Z54	X55	Y55	Z55	X56	Y56	Z56	X57	Y57	Z57	X58	Y58	Z58	X59	Y59	Z59	X60	Y60	Z60	X61	Y61	Z61	X62	Y62	Z62	X63	Y63	Z63	X64	Y64	Z64	X65	Y65	Z65	X66	Y66	Z66	X67	Y67	Z67	X68	Y68	Z68	X69	Y69	Z69	X70	Y70	Z70	X71	Y71	Z71	X72	Y72	Z72	X73	Y73	Z73	X74	Y74	Z74	X75	Y75	Z75	X76	Y76	Z76	X77	Y77	Z77	X78	Y78	Z78	X79	Y79	Z79	X80	Y80	Z80	X81	Y81	Z81	X82	Y82	Z82	X83	Y83	Z83	X84	Y84	Z84	X85	Y85	Z85	X86	Y86	Z86	X87	Y87	Z87	X88	Y88	Z88	X89	Y89	Z89	X90	Y90	Z90	X91	Y91	Z91	X92	Y92	Z92	X93	Y93	Z93	X94	Y94	Z94	X95	Y95	Z95	X96	Y96	Z96	X97	Y97	Z97	X98	Y98	Z98	X99	Y99	Z99	X100	Y100	Z100	X101	Y101	Z101	X102	Y102	Z102	X103	Y103	Z103	X104	Y104	Z104	X105	Y105	Z105	X106	Y106	Z106	X107	Y107	Z107	X108	Y108	Z108	X109	Y109	Z109	X110	Y110	Z110	X111	Y111	Z111	X112	Y112	Z112	X113	Y113	Z113	X114	Y114	Z114	X115	Y115	Z115	X116	Y116	Z116	X117	Y117	Z117	X118	Y118	Z118	X119	Y119	Z119	X120	Y120	Z120	X121	Y121	Z121	X122	Y122	Z122	X123	Y123	Z123	X124	Y124	Z124	X125	Y125	Z125	X126	Y126	Z126	X127	Y127	Z127	X128	Y128	Z128	X129	Y129	Z129	X130	Y130	Z130	X131	Y131	Z131	X132	Y132	Z132	X133	Y133	Z133	X134	Y134	Z134	X135	Y135	Z135	X136	Y136	Z136	X137	Y137	Z137	X138	Y138	Z138	X139	Y139	Z139	X140	Y140	Z140	X141	Y141	Z141	X142	Y142	Z142	X143	Y143	Z143	X144	Y144	Z144	X145	Y145	Z145	X146	Y146	Z146	X147	Y147	Z147	X148	Y148	Z148	X149	Y149	Z149	X150	Y150	Z150	X151	Y151	Z151	X152	Y152	Z152	X153	Y153	Z153	X154	Y154	Z154	X155	Y155	Z155	X156	Y156	Z156	X157	Y157	Z157	X158	Y158	Z158	X159	Y159	Z159	X160	Y160	Z160	X161	Y161	Z161	X162	Y162	Z162	X163	Y163	Z163	X164	Y164	Z164	X165	Y165	Z165	X166	Y166	Z166	X167	Y167	Z167	X168	Y168	Z168	X169	Y169	Z169	X170	Y170	Z170	X171	Y171	Z171	X172	Y172	Z172	X173	Y173	Z173	X174	Y174	Z174	X175	Y175	Z175	X176	Y176	Z176	X177	Y177	Z177	X178	Y178	Z178	X179	Y179	Z179	X180	Y180	Z180	X181	Y181	Z181	X182	Y182	Z182	X183	Y183	Z183	X184	Y184	Z184	X185	Y185	Z185	X186	Y186	Z186	

177	2.933	0.00000	0.00000	0.00000	0.00000	0.00000	0.00000	0.00000	0.00000	0.00000	0.00000	0.00000	0.00000	0.00000	0.00000	0.00000	0.00000	0.00000	0.00000	0.00000	0.00000	0.00000	0.00000	0.00000	0.00000	0.00000	0.00000	0.00000	0.00000	0.00000	0.00000	0.00000	0.00000	0.00000	0.00000	0.00000	0.00000	0.00000	0.00000	0.00000	0.00000	0.00000	0.00000	0.00000	0.00000	0.00000	0.00000	0.00000	0.00000	0.00000	0.00000	0.00000	0.00000	0.00000	0.00000	0.00000	0.00000	0.00000	0.00000	0.00000	0.00000	0.00000	0.00000	0.00000	0.00000	0.00000	0.00000	0.00000	0.00000	0.00000	0.00000	0.00000	0.00000	0.00000	0.00000	0.00000	0.00000	0.00000	0.00000	0.00000	0.00000	0.00000	0.00000	0.00000	0.00000	0.00000	0.00000	0.00000	0.00000	0.00000	0.00000	0.00000	0.00000	0.00000	0.00000	0.00000	0.00000	0.00000	0.00000	0.00000	0.00000	0.00000	0.00000	0.00000	0.00000	0.00000	0.00000	0.00000	0.00000	0.00000	0.00000	0.00000	0.00000	0.00000	0.00000	0.00000	0.00000	0.00000	0.00000	0.00000	0.00000	0.00000	0.00000	0.00000	0.00000	0.00000	0.00000	0.00000	0.00000	0.00000	0.00000	0.00000	0.00000	0.00000	0.00000	0.00000	0.00000	0.00000	0.00000	160.28910	308.09717	1042.79396	228.00526	215.40049	1041.03775	97.19664	275.42557	953.39012	212.56191	310.77810	968.07724	313.19864	311.57269	831.17599	310.65929	172.79549	745.60089	314.87198	86.73135	750.67406	320.44327	26.79917	792.83333	116.15442	361.56528	831.95335	120.92847	155.66380	757.80075	168.23128	67.06554	788.12645	194.61126	25.21128	812.78839	222.27942	403.88523	803.94302	223.09338	428.43353	706.56982	248.52802	463.36678	606.98784	282.94931	413.79467	581.94672	136.75226	438.72150	626.34026	234.05943	440.08930	424.05758	85.85622	441.78242	496.08955	233.37048	266.54358	395.52856	163.17783	226.94414	266.41251	146.65991	135.25165	247.25899	64.63789	313.88199	480.09651	14.94336	252.07134	317.44165	-8.64408	155.27856	307.31833	160.28910	308.09717	1042.79396	214.67653	336.56898	831.56471	125.33718	173.82015	707.66937	203.60123	86.27635	789.08096	239.96798	53.58176	812.42004	318.80630	205.74121	691.93100	258.95752	83.37259	740.12451	268.03755	17.78627	786.94626	116.64304	308.53704	453.84495	66.24015	250.63696	302.31447	41.23104	144.82874	291.02345	189.15451	263.28909	416.39381	116.56096	224.38910	292.53891	100.73732	137.81596	274.58643	139.43889	394.23832	697.24976	308.84602	369.83406	692.51343	205.00578	247.37944	931.66611	0.00000	0.00000	0.00000	0.00000	0.00000	0.00000	0.00000	0.00000	0.00000	0.00000	0.00000	0.00000	0.00000	0.00000	0.00000	0.00000	0.00000	0.00000	0.00000	0.00000	0.00000	0.00000	0.00000	0.00000	0.00000	0.00000	0.00000	0.00000	0.00000	0.00000	0.00000	0.00000	0.00000	0.00000	0.00000	0.00000	0.00000	0.00000	0.00000	0.00000	0.00000	0.00000	0.00000	0.00000	0.00000	0.00000	0.00000	0.00000	0.00000	0.00000	0.00000	0.00000	0.00000	0.00000	0.00000	0.00000	0.00000	0.00000	0.00000	0.00000	0.00000	0.00000	0.00000	0.00000	0.00000	0.00000	0.00000	0.00000	0.00000	0.00000	0.00000	0.00000	0.00000	0.00000	0.00000	0.00000	0.00000	0.00000	0.00000	0.00000	0.00000	0.00000	0.00000	0.00000	0.00000	0.00000	0.00000	0.00000	0.00000	0.00000	0.00000	0.00000	0.00000	0.00000	0.00000	0.00000	0.00000	0.00000	0.00000	0.00000	0.00000	0.00000	0.00000	0.00000	0.00000	0.00000	0.00000	0.00000	0.00000	0.00000	0.00000	0.00000	0.00000	0.00000	0.00000	0.00000	0.00000	0.00000	0.00000	0.00000	0.00000	0.00000	0.00000	0.00000	0.00000	0.00000	0.00000	0.00000	0.00000	0.00000	0.00000	0.00000	0.00000	0.00000	0.00000	0.00000	0.00000	0.00000	0.00000	0.00000	0.00000	0.00000	0.00000	0.00000	0.00000	0.00000	0.00000	0.00000	0.00000	0.00000	0.00000	0.00000	0.00000	0.00000	0.00000	0.00000	0.00000	0.00000	0.00000	0.00000	0.00000	0.00000	0.00000	0.00000	0.00000	0.00000	0.00000	0.00000	0.00000	0.00000	0.00000	0.00000	0.00000	0.00000	0.00000	0.00000	0.00000	0.00000	0.00000	0.00000	0.00000	0.00000	0.00000	0.00000	0.00000	0.00000	0.00000	0.00000	0.00000	0.00000	0.00000	0.00000	0.00000	0.00000	0.00000	0.00000	0.00000	0.00000	0.00000	0.00000	0.00000	0.00000	0.00000	0.00000	0.00000	0.00000	0.00000	0.00000	0.00000	0.00000	0.00000	0.00000	0.00000	0.00000	0.00000	0.00000	0.00000	0.00000	0.00000	0.00000	0.00000	0.00000	0.00000	0.00000	0.00000	0.00000	0.00000	0.00000	0.00000	0.00000	0.00000	0.00000	0.00000	0.00000	0.00000	0.00000	0.00000	0.00000	0.00000	0.00000	0.00000	0.00000	0.00000	0.00000	0.00000	0.00000	0.00000	0.00000	0.00000	0.00000	0.00000	0.00000	0.00000	0.00000	0.00000	0.00000	0.00000	0.00000	0.00000	0.00000	0.00000	0.00000	0.00000	0.00000	0.00000	0.00000	0.00000	0.00000	0.00000	0.00000	0.00000	0.00000	0.00000	0.00000	0.00000	0.00000	0.00000	0.00000	0.00000	0.00000	0.00000	0.00000	0.00000	0.00000	0.00000	0.00000	0.00000	0.00000	0.00000	0.00000	0.00000	0.00000	0.00000	0.00000 
178	2.950	0.00000	0.00000	0.00000	0.00000	0.00000	0.00000	0.00000	0.00000	0.00000	0.00000	0.00000	0.00000	0.00000	0.00000	0.00000	0.00000	0.00000	0.00000	0.00000	0.00000	0.00000	0.00000	0.00000	0.00000	0.00000	0.00000	0.00000	0.00000	0.00000	0.00000	0.00000	0.00000	0.00000	0.00000	0.00000	0.00000	0.00000	0.00000	0.00000	0.00000	0.00000	0.00000	0.00000	0.00000	0.00000	0.00000	0.00000	0.00000	0.00000	0.00000	0.00000	0.00000	0.00000	0.00000	0.00000	0.00000	0.00000	0.00000	0.00000	0.00000	0.00000	0.00000	0.00000	0.00000	0.00000	0.00000	0.00000	0.00000	0.00000	0.00000	0.00000	0.00000	0.00000	0.00000	0.00000	0.00000	0.00000	0.00000	0.00000	0.00000	0.00000	0.00000	0.00000	0.00000	0.00000	0.00000	0.00000	0.00000	0.00000	0.00000	0.00000	0.00000	0.00000	0.00000	0.00000	0.00000	0.00000	0.00000	0.00000	0.00000	0.00000	0.00000	0.00000	0.00000	0.00000	0.00000	0.00000	0.00000	0.00000	0.00000	0.00000	0.00000	0.00000	0.00000	0.00000	0.00000	0.00000	0.00000	0.00000	0.00000	0.00000	0.00000	0.00000	0.00000	0.00000	0.00000	0.00000	0.00000	0.00000	0.00000	0.00000	0.00000	0.00000	0.00000	0.00000	0.00000	0.00000	0.00000	156.74861	292.59069	1066.30943	214.61258	194.08644	1057.45117	96.31841	273.71796	970.86746	214.15930	298.60193	994.04518	319.59896	314.85205	848.73856	314.65326	179.04390	758.28949	317.06209	93.18996	759.14864	321.67850	28.71245	796.70975	123.48190	367.05090	851.60896	125.05719	162.33627	771.71005	169.53690	71.82310	793.97629	194.57722	26.71591	815.60280	229.17406	408.57254	823.47824	230.35343	433.89000	726.29082	258.97709	465.39619	625.58083	291.96987	413.67294	602.73537	146.16783	444.85001	642.24724	249.43401	438.91148	443.40580	97.86511	439.27185	514.31843	248.90793	263.66867	417.17041	180.84900	251.25298	281.39908	154.40244	164.66324	257.38466	73.42551	312.83388	506.21758	27.57441	283.76987	340.00622	4.00991	188.62825	326.88461	156.74861	292.59069	1066.30943	221.54043	340.95146	850.17372	129.49774	181.75049	722.05505	205.58720	89.73274	794.76456	241.34907	52.68985	815.62263	323.11283	213.71572	705.76759	260.99554	91.51544	749.01268	269.05569	21.32765	790.50049	125.36276	304.43350	480.64011	79.08414	277.79638	326.84124	54.58283	178.01323	313.02998	204.43022	260.75516	437.52342	133.20798	248.24457	305.55548	108.78552	171.04845	284.59822	146.42535	400.48580	716.57051	315.46124	374.45232	711.84006	208.54635	237.23455	953.98537	0.00000	0.00000	0.00000	0.00000	0.00000	0.00000	0.00000	0.00000	0.00000	0.00000	0.00000	0.00000	0.00000	0.00000	0.00000	0.00000	0.00000	0.00000	0.00000	0.00000	0.00000	0.00000	0.00000	0.00000	0.00000	0.00000	0.00000	0.00000	0.00000	0.00000	0.00000	0.00000	0.00000	0.00000	0.00000	0.00000	0.00000	0.00000	0.00000	0.00000	0.00000	0.00000	0.00000	0.00000	0.00000	0.00000	0.00000	0.00000	0.00000	0.00000	0.00000	0.00000	0.00000	0.00000	0.00000	0.00000	0.00000	0.00000	0.00000	0.00000	0.00000	0.00000	0.00000	0.00000	0.00000	0.00000	0.00000	0.00000	0.00000	0.00000	0.00000	0.00000	0.00000	0.00000	0.00000	0.00000	0.00000	0.00000	0.00000	0.00000	0.00000	0.00000	0.00000	0.00000	0.00000	0.00000	0.00000	0.00000	0.00000	0.00000	0.00000	0.00000	0.00000	0.00000	0.00000	0.00000	0.00000	0.00000	0.00000	0.00000	0.00000	0.00000	0.00000	0.00000	0.00000	0.00000	0.00000	0.00000	0.00000	0.00000	0.00000	0.00000	0.00000	0.00000	0.00000	0.00000	0.00000	0.00000	0.00000	0.00000	0.00000	0.00000	0.00000	0.00000	0.00000	0.00000	0.00000	0.00000	0.00000	0.00000	0.00000	0.00000	0.00000	0.00000	0.00000	0.00000	0.00000	0.00000	0.00000	0.00000	0.00000	0.00000	0.00000	0.00000	0.00000	0.00000	0.00000	0.00000	0.00000	0.00000	0.00000	0.00000	0.00000	0.00000	0.00000	0.00000	0.00000	0.00000	0.00000	0.00000	0.00000	0.00000	0.00000	0.00000	0.00000	0.00000	0.00000	0.00000	0.00000	0.00000	0.00000	0.00000	0.00000	0.00000	0.00000	0.00000	0.00000	0.00000	0.00000	0.00000	0.00000	0.00000	0.00000	0.00000	0.00000	0.00000	0.00000	0.00000	0.00000	0.00000	0.00000	0.00000	0.00000	0.00000	0.00000	0.00000	0.00000	0.00000	0.00000	0.00000	0.00000	0.00000	0.00000	0.00000	0.00000	0.00000	0.00000	0.00000	0.00000	0.00000	0.00000	0.00000	0.00000	0.00000	0.00000	0.00000	0.00000	0.00000	0.00000	0.00000	0.00000	0.00000	0.00000	0.00000	0.00000	0.00000	0.00000	0.00000	0.00000	0.00000	0.00000	0.00000	0.00000	0.00000	0.00000	0.00000	0.00000	0.00000	0.00000	0.00000	0.00000	0.00000	0.00000	0.00000	0.00000	0.00000	0.00000	0.00000	0.00000	0.00000	0.00000	0.00000	0.00000	0.00000	0.00000	0.00000	0.00000	0.00000	0.00000	0.00000	0.00000	0.00000	0.00000	0.00000	0.00000	0.00000	0.00000	0.00000	0.00000	0.00000	0.00000	0.00000	0.00000	0.00000	0.00000	0.00000	0.00000	0.00000	0.00000	0.00000	0.00000	0.00000	0.00000	0.00000	0.00000	0.00000	0.00000	0.00000	0.00000	0.00000	0.00000	0.00000	0.00000	0.00000 
179	2.967	0.00000	0.00000	0.00000	0.00000	0.00000	0.00000	0.00000	0.00000	0.00000	0.00000	0.00000	0.00000	0.00000	0.00000	0.00000	0.00000	0.00000	0.00000	0.00000	0.00000	0.00000	0.00000	0.00000	0.00000	0.00000	0.00000	0.00000	0.00000	0.00000	0.00000	0.00000	0.00000	0.00000	0.00000	0.00000	0.00000	0.00000	0.00000	0.00000	0.00000	0.00000	0.00000	0.00000	0.00000	0.00000	0.00000	0.00000	0.00000	0.00000	0.00000	0.00000	0.00000	0.00000	0.00000	0.00000	0.00000	0.00000	0.00000	0.00000	0.00000	0.00000	0.00000	0.00000	0.00000	0.00000	0.00000	0.00000	0.00000	0.00000	0.00000	0.00000	0.00000	0.00000	0.00000	0.00000	0.00000	0.00000	0.00000	0.00000	0.00000	0.00000	0.00000	0.00000	0.00000	0.00000	0.00000	0.00000	0.00000	0.00000	0.00000	0.00000	0.00000	0.00000	0.00000	0.00000	0.00000	0.00000	0.00000	0.00000	0.00000	0.00000	0.00000	0.00000	0.00000	0.00000	0.00000	0.00000	0.00000	0.00000	0.00000	0.00000	0.00000	0.00000	0.00000	0.00000	0.00000	0.00000	0.00000	0.00000	0.00000	0.00000	0.00000	0.00000	0.00000	0.00000	0.00000	0.00000	0.00000	0.00000	0.00000	0.00000	0.00000	0.00000	0.00000	0.00000	0.00000	0.00000	0.00000	150.03931	288.54004	1083.47900	201.32441	186.49136	1070.52475	95.18323	278.71504	982.79465	212.91573	295.65128	1014.14932	324.26582	321.27983	866.34079	317.66705	184.36184	777.70836	319.51366	99.36391	768.87772	323.55873	30.42494	800.83206	128.64868	373.70003	867.69463	128.70158	169.45307	786.42799	171.38159	76.37889	800.64636	195.29831	28.36637	819.15604	234.07326	414.99302	839.63684	235.43919	441.62712	743.47160	265.05854	471.28933	641.24496	298.79822	418.44158	620.71064	152.20082	451.77456	653.80714	262.29654	437.94430	460.03868	109.65398	442.41928	522.39941	265.50318	261.43982	441.75941	203.33385	270.78169	305.54581	166.07214	190.51115	278.28766	81.81279	313.49054	531.32141	43.40730	309.41742	369.99828	24.26645	214.33891	354.12498	150.03931	288.54004	1083.47900	226.45723	347.48993	867.01767	133.63687	189.14852	736.93069	207.94399	93.22802	801.19034	243.16320	52.26575	819.30176	326.38035	218.24596	724.71596	263.29468	99.11914	759.47739	270.75918	24.44387	794.61212	134.55997	300.59412	509.55750	94.25146	297.68316	358.19031	75.86610	205.83559	342.83699	220.07711	258.73281	459.92931	154.66544	267.67630	327.54562	121.78619	201.59624	306.18256	151.31097	408.89469	733.21098	320.92312	382.88338	728.41599	210.13283	235.18236	972.45987	0.00000	0.00000	0.00000	0.00000	0.00000	0.00000	0.00000	0.00000	0.00000	0.00000	0.00000	0.00000	0.00000	0.00000	0.00000	0.00000	0.00000	0.00000	0.00000	0.00000	0.00000	0.00000	0.00000	0.00000	0.00000	0.00000	0.00000	0.00000	0.00000	0.00000	0.00000	0.00000	0.00000	0.00000	0.00000	0.00000	0.00000	0.00000	0.00000	0.00000	0.00000	0.00000	0.00000	0.00000	0.00000	0.00000	0.00000	0.00000	0.00000	0.00000	0.00000	0.00000	0.00000	0.00000	0.00000	0.00000	0.00000	0.00000	0.00000	0.00000	0.00000	0.00000	0.00000	0.00000	0.00000	0.00000	0.00000	0.00000	0.00000	0.00000	0.00000	0.00000	0.00000	0.00000	0.00000	0.00000	0.00000	0.00000	0.00000	0.00000	0.00000	0.00000	0.00000	0.00000	0.00000	0.00000	0.00000	0.00000	0.00000	0.00000	0.00000	0.00000	0.00000	0.00000	0.00000	0.00000	0.00000	0.00000	0.00000	0.00000	0.00000	0.00000	0.00000	0.00000	0.00000	0.00000	0.00000	0.00000	0.00000	0.00000	0.00000	0.00000	0.00000	0.00000	0.00000	0.00000	0.00000	0.00000	0.00000	0.00000	0.00000	0.00000	0.00000	0.00000	0.00000	0.00000	0.00000	0.00000	0.00000	0.00000	0.00000	0.00000	0.00000	0.00000	0.00000	0.00000	0.00000	0.00000	0.00000	0.00000	0.00000	0.00000	0.00000	0.00000	0.00000	0.00000	0.00000	0.00000	0.00000	0.00000	0.00000	0.00000	0.00000	0.00000	0.00000	0.00000	0.00000	0.00000	0.00000	0.00000	0.00000	0.00000	0.00000	0.00000	0.00000	0.00000	0.00000	0.00000	0.00000	0.00000	0.00000	0.00000	0.00000	0.00000	0.00000	0.00000	0.00000	0.00000	0.00000	0.00000	0.00000	0.00000	0.00000	0.00000	0.00000	0.00000	0.00000	0.00000	0.00000	0.00000	0.00000	0.00000	0.00000	0.00000	0.00000	0.00000	0.00000	0.00000	0.00000	0.00000	0.00000	0.00000	0.00000	0.00000	0.00000	0.00000	0.00000	0.00000	0.00000	0.00000	0.00000	0.00000	0.00000	0.00000	0.00000	0.00000	0.00000	0.00000	0.00000	0.00000	0.00000	0.00000	0.00000	0.00000	0.00000	0.00000	0.00000	0.00000	0.00000	0.00000	0.00000	0.00000	0.00000	0.00000	0.00000	0.00000	0.00000	0.00000	0.00000	0.00000	0.00000	0.00000	0.00000	0.00000	0.00000	0.00000	0.00000	0.00000	0.00000	0.00000	0.00000	0.00000	0.00000	0.00000	0.00000	0.00000	0.00000	0.00000	0.00000	0.00000	0.00000	0.00000	0.00000	0.00000	0.00000	0.00000	0.00000	0.00000	0.00000	0.00000	0.00000	0.00000	0.00000	0.00000	0.00000	0.00000	0.00000	0.00000	0.00000	0.00000	0.00000	0.00000	0.00000	0.00000	0.00000	0.00000	0.00000	0.00000	0.00000	0.00000	0.00000	0.00000	0.00000	0.00000 
180	2.983	0.00000	0.00000	0.00000	0.00000	0.00000	0.00000	0.00000	0.00000	0.00000	0.00000	0.00000	0.00000	0.00000	0.00000	0.00000	0.00000	0.00000	0.00000	0.00000	0.00000	0.00000	0.00000	0.00000	0.00000	0.00000	0.00000	0.00000	0.00000	0.00000	0.00000	0.00000	0.00000	0.00000	0.00000	0.00000	0.00000	0.00000	0.00000	0.00000	0.00000	0.00000	0.00000	0.00000	0.00000	0.00000	0.00000	0.00000	0.00000	0.00000	0.00000	0.00000	0.00000	0.00000	0.00000	0.00000	0.00000	0.00000	0.00000	0.00000	0.00000	0.00000	0.00000	0.00000	0.00000	0.00000	0.00000	0.00000	0.00000	0.00000	0.00000	0.00000	0.00000	0.00000	0.00000	0.00000	0.00000	0.00000	0.00000	0.00000	0.00000	0.00000	0.00000	0.00000	0.00000	0.00000	0.00000	0.00000	0.00000	0.00000	0.00000	0.00000	0.00000	0.00000	0.00000	0.00000	0.00000	0.00000	0.00000	0.00000	0.00000	0.00000	0.00000	0.00000	0.00000	0.00000	0.00000	0.00000	0.00000	0.00000	0.00000	0.00000	0.00000	0.00000	0.00000	0.00000	0.00000	0.00000	0.00000	0.00000	0.00000	0.00000	0.00000	0.00000	0.00000	0.00000	0.00000	0.00000	0.00000	0.00000	0.00000	0.00000	0.00000	0.00000	0.00000	0.00000	0.00000	0.00000	0.00000	140.71490	294.24185	1097.24304	189.44420	191.01360	1084.80270	93.74726	288.97566	991.58600	209.69740	300.89273	1030.75111	327.08988	329.57920	884.60976	320.66746	189.44780	801.00243	322.55779	105.42416	780.68840	326.21979	32.26746	806.04233	131.36079	380.59467	881.14487	132.09056	176.36646	801.49284	173.20337	80.48193	807.79037	196.05284	29.94765	823.48190	236.94530	422.52926	854.31976	238.82566	451.29925	759.60327	267.99881	479.72660	655.44640	304.38583	426.72726	637.49897	155.77692	458.46073	663.57613	273.75418	437.47780	476.03512	121.79739	448.93841	524.42852	282.55726	261.32036	469.48326	228.28892	285.43121	337.17888	182.62949	211.39015	308.36903	90.40381	316.76132	555.65205	62.43611	325.82619	402.30293	50.56632	229.86803	387.08767	140.71490	294.24185	1097.24304	229.22535	355.08690	882.87735	138.00786	195.70517	751.96259	210.19283	96.37366	808.27164	244.76198	52.07366	823.80966	329.93336	221.32130	746.86859	266.29381	106.35426	771.60553	273.35356	27.34404	799.47189	144.43442	300.32440	540.39520	112.70087	310.52069	392.23095	103.11859	224.73270	378.47740	235.90906	258.44177	484.20261	178.67645	281.63403	356.83681	140.16640	226.32511	337.28413	154.71570	418.93417	748.10257	325.51411	394.47784	744.06479	209.94923	240.36232	989.05869	0.00000	0.00000	0.00000	0.00000	0.00000	0.00000	0.00000	0.00000	0.00000	0.00000	0.00000	0.00000	0.00000	0.00000	0.00000	0.00000	0.00000	0.00000	0.00000	0.00000	0.00000	0.00000	0.00000	0.00000	0.00000	0.00000	0.00000	0.00000	0.00000	0.00000	0.00000	0.00000	0.00000	0.00000	0.00000	0.00000	0.00000	0.00000	0.00000	0.00000	0.00000	0.00000	0.00000	0.00000	0.00000	0.00000	0.00000	0.00000	0.00000	0.00000	0.00000	0.00000	0.00000	0.00000	0.00000	0.00000	0.00000	0.00000	0.00000	0.00000	0.00000	0.00000	0.00000	0.00000	0.00000	0.00000	0.00000	0.00000	0.00000	0.00000	0.00000	0.00000	0.00000	0.00000	0.00000	0.00000	0.00000	0.00000	0.00000	0.00000	0.00000	0.00000	0.00000	0.00000	0.00000	0.00000	0.00000	0.00000	0.00000	0.00000	0.00000	0.00000	0.00000	0.00000	0.00000	0.00000	0.00000	0.00000	0.00000	0.00000	0.00000	0.00000	0.00000	0.00000	0.00000	0.00000	0.00000	0.00000	0.00000	0.00000	0.00000	0.00000	0.00000	0.00000	0.00000	0.00000	0.00000	0.00000	0.00000	0.00000	0.00000	0.00000	0.00000	0.00000	0.00000	0.00000	0.00000	0.00000	0.00000	0.00000	0.00000	0.00000	0.00000	0.00000	0.00000	0.00000	0.00000	0.00000	0.00000	0.00000	0.00000	0.00000	0.00000	0.00000	0.00000	0.00000	0.00000	0.00000	0.00000	0.00000	0.00000	0.00000	0.00000	0.00000	0.00000	0.00000	0.00000	0.00000	0.00000	0.00000	0.00000	0.00000	0.00000	0.00000	0.00000	0.00000	0.00000	0.00000	0.00000	0.00000	0.00000	0.00000	0.00000	0.00000	0.00000	0.00000	0.00000	0.00000	0.00000	0.00000	0.00000	0.00000	0.00000	0.00000	0.00000	0.00000	0.00000	0.00000	0.00000	0.00000	0.00000	0.00000	0.00000	0.00000	0.00000	0.00000	0.00000	0.00000	0.00000	0.00000	0.00000	0.00000	0.00000	0.00000	0.00000	0.00000	0.00000	0.00000	0.00000	0.00000	0.00000	0.00000	0.00000	0.00000	0.00000	0.00000	0.00000	0.00000	0.00000	0.00000	0.00000	0.00000	0.00000	0.00000	0.00000	0.00000	0.00000	0.00000	0.00000	0.00000	0.00000	0.00000	0.00000	0.00000	0.00000	0.00000	0.00000	0.00000	0.00000	0.00000	0.00000	0.00000	0.00000	0.00000	0.00000	0.00000	0.00000	0.00000	0.00000	0.00000	0.00000	0.00000	0.00000	0.00000	0.00000	0.00000	0.00000	0.00000	0.00000	0.00000	0.00000	0.00000	0.00000	0.00000	0.00000	0.00000	0.00000	0.00000	0.00000	0.00000	0.00000	0.00000	0.00000	0.00000	0.00000	0.00000	0.00000	0.00000	0.00000	0.00000	0.00000	0.00000	0.00000	0.00000	0.00000	0.00000	0.00000	0.00000	0.00000	0.00000	0.00000	0.00000	0.00000	0.00000 
